<?xml version="1.0" encoding="utf-8"?>
<!-- Generator: Adobe Illustrator 25.4.2, SVG Export Plug-In . SVG Version: 6.00 Build 0)  -->
<svg version="1.1" id="Layer_1" xmlns="http://www.w3.org/2000/svg" xmlns:xlink="http://www.w3.org/1999/xlink" x="0px" y="0px"
	 viewBox="0 0 464.4 519.2" style="enable-background:new 0 0 464.4 519.2;" xml:space="preserve">
<style type="text/css">
	.st0{fill:#5F8DD1;}
	.st1{fill:#1F3150;}
</style>
<g>
	<path class="st0" d="M337.2,82.1c-63,0-87-32-150-32c-51,0-75,21-115,29v64c40-8,64-29,115-29c63,0,87,32,150,32c20,0,35-3,55-9
		v208c-20,6-35,9-55,9c-63,0-87-32-150-32c-20,0-36,4-51,8v64c15-4,31-8,51-8c63,0,87,32,150,32c37,0,56-9,119-32v-336
		C393.2,73.1,374.2,82.1,337.2,82.1z"/>
	<path class="st1" d="M72.2,144.6v-64v-13c0-18-14-32-32-32s-32,14-32,32v384c0,18,14,32,32,32s32-14,32-32V144.6z"/>
</g>
</svg>
